# xmcd CD database file
#
# Track frame offsets:
#	150
#	11735
#	20750
#	36007
#	49515
#	61082
#	74235
#	84135
#	100955
#	110517
#	119685
#	133002
#	139970
#	146897
#	156130
#	168912
#
# Disc length: 2396 seconds
#
# Revision: 1
# Processed by: cddbd v1.5.2PL0 Copyright (c) Steve Scherf et al.
# Submitted via: CDex 1.51
#
DISCID=e6095a10
DTITLE=Willie Nelson - RCA Country Legends
DYEAR=2002
DGENRE=Country
TTITLE0=I Don't Feel Anything
TTITLE1=Texas In My Soul
TTITLE2=When I Don't Have You
TTITLE3=Good Hearted Woman
TTITLE4=Wild Memories
TTITLE5=If You Could See What's Going Through My Mind (Undubbed)
TTITLE6=Bring Me Sunshine (Undubbed)
TTITLE7=Who'll Buy My Memories
TTITLE8=Mountain Dew
TTITLE9=Phases, Stages, Circles, Cycles And Scenes
TTITLE10=Pretend I Never Happened
TTITLE11=Sister's Coming Home
TTITLE12=Down At The Corner Beer Joint
TTITLE13=I'm Falling In Love Again
TTITLE14=No Love Around
TTITLE15=Come On Home
EXTD=mt in klein,texas YEAR: 2002
EXTT0=
EXTT1=
EXTT2=
EXTT3=
EXTT4=
EXTT5=
EXTT6=
EXTT7=
EXTT8=
EXTT9=
EXTT10=
EXTT11=
EXTT12=
EXTT13=
EXTT14=
EXTT15=
PLAYORDER=
